<?xml version="1.0" encoding="utf-8"?>
<!-- Generator: Adobe Illustrator 22.1.0, SVG Export Plug-In . SVG Version: 6.00 Build 0)  -->
<svg version="1.1" xmlns="http://www.w3.org/2000/svg" xmlns:xlink="http://www.w3.org/1999/xlink" x="0px" y="0px"
	 viewBox="0 0 330 196" style="enable-background:new 0 0 330 196;" xml:space="preserve">
<style type="text/css">
	.st0{opacity:0.2;}
	.st1{clip-path:url(#SVGID_2_);fill:#5697DD;}
	.st2{opacity:0.5;}
	.st3{clip-path:url(#SVGID_4_);fill:#5697DD;}
	.st4{clip-path:url(#SVGID_6_);fill:#5697DD;}
	.st5{clip-path:url(#SVGID_8_);fill:#5697DD;}
	.st6{fill:#334052;}
	.st7{fill:#95A3A3;}
	.st8{fill:#C44A11;}
	.st9{fill:#D9771C;}
	.st10{fill:#E9C22E;}
</style>
<g id="Capa_1">
	<g>
		<path d="M169.4,107.1V119c0,4.5,2,6.4,4.7,6.4c2.9,0,4.9-2,4.9-6.4v-11.9h2.6v11.7c0,6.2-3.2,8.7-7.6,8.7c-4.1,0-7.2-2.3-7.2-8.6
			v-11.8H169.4z"/>
		<path d="M186,116.6c0-1.5-0.1-2.7-0.1-3.9h2.3l0.1,2.3h0.1c0.8-1.4,2.1-2.6,4.6-2.6c1.9,0,3.4,1.2,4,2.9h0.1
			c0.4-0.8,1-1.4,1.6-1.9c0.9-0.7,1.8-1,3.2-1c1.9,0,4.8,1.2,4.8,6.2v8.4H204V119c0-2.8-1-4.4-3.1-4.4c-1.5,0-2.6,1.1-3.1,2.3
			c-0.1,0.4-0.2,0.8-0.2,1.3v8.9H195v-8.6c0-2.3-1-3.9-3-3.9c-1.6,0-2.8,1.3-3.2,2.6c-0.2,0.4-0.2,0.8-0.2,1.3v8.7H186V116.6z"/>
		<path d="M210.8,106h2.6v9h0.1c0.9-1.6,2.6-2.6,4.9-2.6c3.6,0,6.1,3,6.1,7.3c0,5.1-3.3,7.7-6.5,7.7c-2.1,0-3.7-0.8-4.8-2.7h-0.1
			l-0.1,2.3h-2.2c0.1-1,0.1-2.4,0.1-3.7V106z M213.4,121.3c0,0.3,0,0.7,0.1,1c0.5,1.8,2,3.1,3.9,3.1c2.8,0,4.4-2.2,4.4-5.5
			c0-2.9-1.5-5.4-4.3-5.4c-1.8,0-3.4,1.2-4,3.2c-0.1,0.3-0.1,0.7-0.1,1.1V121.3z"/>
		<path d="M227.8,117.2c0-1.7,0-3.2-0.1-4.5h2.3l0.1,2.9h0.1c0.7-1.9,2.3-3.2,4-3.2c0.3,0,0.5,0,0.7,0.1v2.5
			c-0.3-0.1-0.5-0.1-0.9-0.1c-1.8,0-3.2,1.4-3.5,3.3c-0.1,0.4-0.1,0.8-0.1,1.2v7.7h-2.6V117.2z"/>
		<path d="M238.7,120.4c0.1,3.5,2.3,5,4.9,5c1.9,0,3-0.3,4-0.7l0.5,1.9c-0.9,0.4-2.5,0.9-4.8,0.9c-4.4,0-7.1-2.9-7.1-7.3
			c0-4.3,2.6-7.7,6.8-7.7c4.7,0,5.9,4.1,5.9,6.8c0,0.5,0,0.9-0.1,1.2H238.7z M246.3,118.5c0-1.6-0.7-4.2-3.6-4.2
			c-2.7,0-3.8,2.4-4,4.2H246.3z"/>
		<path d="M252.1,106h2.6v21.1h-2.6V106z"/>
		<path d="M259.1,106h2.6v21.1h-2.6V106z"/>
		<path d="M276.3,123.7c0,1.2,0.1,2.5,0.2,3.4h-2.3l-0.2-1.8h-0.1c-0.8,1.1-2.3,2.1-4.4,2.1c-2.9,0-4.4-2.1-4.4-4.1
			c0-3.5,3.1-5.4,8.7-5.4v-0.3c0-1.2-0.3-3.3-3.3-3.3c-1.4,0-2.8,0.4-3.8,1.1l-0.6-1.8c1.2-0.7,2.9-1.2,4.8-1.2c4.4,0,5.5,3,5.5,5.9
			V123.7z M273.7,119.8c-2.9-0.1-6.1,0.4-6.1,3.2c0,1.7,1.1,2.5,2.4,2.5c1.9,0,3.1-1.2,3.5-2.4c0.1-0.3,0.1-0.6,0.1-0.8V119.8z"/>
	</g>
</g>
<g id="_x3C_Capa_x3E_">
	<g>
		<path d="M165.9,132.1c1.6-0.3,3.4-0.4,5.5-0.4c3.7,0,6.4,0.9,8.1,2.5c1.8,1.6,2.9,4,2.9,7.2c0,3.3-1,5.9-2.9,7.8
			c-1.9,1.9-5,2.9-8.9,2.9c-1.9,0-3.4-0.1-4.7-0.2V132.1z M168.5,149.8c0.7,0.1,1.6,0.1,2.6,0.1c5.6,0,8.5-3.1,8.5-8.5
			c0-4.7-2.6-7.7-8.1-7.7c-1.3,0-2.3,0.1-3,0.3V149.8z"/>
		<path d="M187.2,145.1c0.1,3.5,2.3,5,4.9,5c1.9,0,3-0.3,4-0.7l0.5,1.9c-0.9,0.4-2.5,0.9-4.8,0.9c-4.4,0-7.1-2.9-7.1-7.3
			c0-4.3,2.6-7.7,6.8-7.7c4.7,0,5.9,4.1,5.9,6.8c0,0.5,0,0.9-0.1,1.2H187.2z M194.9,143.2c0-1.6-0.7-4.2-3.6-4.2
			c-2.7,0-3.8,2.4-4,4.2H194.9z"/>
		<path d="M200.3,149.2c0.8,0.5,2.2,1,3.5,1c1.9,0,2.8-0.9,2.8-2.1c0-1.2-0.7-1.9-2.6-2.6c-2.6-1-3.8-2.3-3.8-4.1
			c0-2.3,1.9-4.2,5-4.2c1.5,0,2.7,0.4,3.5,0.9l-0.6,1.9c-0.6-0.4-1.6-0.9-2.9-0.9c-1.5,0-2.4,0.9-2.4,2c0,1.2,0.8,1.7,2.7,2.5
			c2.5,0.9,3.8,2.2,3.8,4.3c0,2.6-2,4.3-5.4,4.3c-1.6,0-3-0.4-4-1L200.3,149.2z"/>
		<path d="M215.4,133.4c0,0.9-0.6,1.6-1.7,1.6c-1,0-1.6-0.7-1.6-1.6s0.7-1.6,1.6-1.6C214.7,131.7,215.4,132.4,215.4,133.4z
			 M212.5,151.8v-14.4h2.6v14.4H212.5z"/>
		<path d="M219.4,141.3c0-1.5,0-2.7-0.1-3.9h2.3l0.2,2.4h0.1c0.7-1.3,2.4-2.7,4.8-2.7c2,0,5.1,1.2,5.1,6.1v8.6h-2.6v-8.3
			c0-2.3-0.9-4.3-3.3-4.3c-1.7,0-3,1.2-3.5,2.7c-0.1,0.3-0.2,0.8-0.2,1.2v8.7h-2.6V141.3z"/>
		<path d="M248.3,149.7c0,3.3-0.7,5.3-2.1,6.6c-1.4,1.3-3.5,1.7-5.3,1.7c-1.7,0-3.6-0.4-4.8-1.2l0.7-2c1,0.6,2.4,1.2,4.2,1.2
			c2.7,0,4.6-1.4,4.6-5.1v-1.6h-0.1c-0.8,1.3-2.3,2.4-4.6,2.4c-3.6,0-6.1-3-6.1-7c0-4.9,3.2-7.6,6.5-7.6c2.5,0,3.8,1.3,4.5,2.5h0.1
			l0.1-2.2h2.3c-0.1,1-0.1,2.2-0.1,3.9V149.7z M245.7,143.1c0-0.4,0-0.8-0.1-1.2c-0.5-1.5-1.7-2.8-3.7-2.8c-2.5,0-4.3,2.1-4.3,5.4
			c0,2.8,1.5,5.2,4.3,5.2c1.6,0,3.1-1,3.6-2.7c0.2-0.4,0.2-1,0.2-1.4V143.1z"/>
		<path d="M252.2,149.2c0.8,0.5,2.2,1,3.5,1c1.9,0,2.8-0.9,2.8-2.1c0-1.2-0.7-1.9-2.6-2.6c-2.6-1-3.8-2.3-3.8-4.1
			c0-2.3,1.9-4.2,5-4.2c1.5,0,2.7,0.4,3.5,0.9l-0.6,1.9c-0.6-0.4-1.6-0.9-2.9-0.9c-1.5,0-2.4,0.9-2.4,2c0,1.2,0.8,1.7,2.7,2.5
			c2.5,0.9,3.8,2.2,3.8,4.3c0,2.6-2,4.3-5.4,4.3c-1.6,0-3-0.4-4-1L252.2,149.2z"/>
	</g>
	<g>
		<g>
			<g>
				<g>
					<g class="st0">
						<g>
							<defs>
								<rect id="SVGID_1_" x="239.7" y="16.4" width="9.2" height="13.1"/>
							</defs>
							<clipPath id="SVGID_2_">
								<use xlink:href="#SVGID_1_"  style="overflow:visible;"/>
							</clipPath>
							<path class="st1" d="M240,25.1c0,2.5,2,4.5,4.5,4.5s4.5-2,4.5-4.5c0-2.5-4.5-8.9-4.5-8.9S240,22.6,240,25.1"/>
						</g>
					</g>
					<g class="st2">
						<g>
							<defs>
								<rect id="SVGID_3_" x="269.8" y="62.7" width="9.2" height="13.1"/>
							</defs>
							<clipPath id="SVGID_4_">
								<use xlink:href="#SVGID_3_"  style="overflow:visible;"/>
							</clipPath>
							<path class="st3" d="M270,71.5c0,2.5,2,4.5,4.5,4.5c2.5,0,4.5-2,4.5-4.5c0-2.5-4.5-8.9-4.5-8.9S270,69.1,270,71.5"/>
						</g>
					</g>
					<g class="st0">
						<g>
							<defs>
								<rect id="SVGID_5_" x="54" y="16.4" width="9.2" height="13.1"/>
							</defs>
							<clipPath id="SVGID_6_">
								<use xlink:href="#SVGID_5_"  style="overflow:visible;"/>
							</clipPath>
							<path class="st4" d="M63,25.1c0,2.5-2,4.5-4.5,4.5s-4.5-2-4.5-4.5c0-2.5,4.5-8.9,4.5-8.9S63,22.6,63,25.1"/>
						</g>
					</g>
					<g class="st2">
						<g>
							<defs>
								<rect id="SVGID_7_" x="24" y="62.7" width="9.2" height="13.1"/>
							</defs>
							<clipPath id="SVGID_8_">
								<use xlink:href="#SVGID_7_"  style="overflow:visible;"/>
							</clipPath>
							<path class="st5" d="M33,71.5c0,2.5-2,4.5-4.5,4.5S24,74,24,71.5c0-2.5,4.5-8.9,4.5-8.9S33,69.1,33,71.5"/>
						</g>
					</g>
					<path class="st6" d="M150.9,14.6c0-4.1,0.8-7.4,1.9-7.4c1,0,1.9,3.3,1.9,7.4c0,4.1-0.8,7.4-1.9,7.4
						C151.8,22.1,150.9,18.7,150.9,14.6"/>
					<path class="st7" d="M152.7,162.1c0.9,0,1.5-0.7,1.5-1.5V43.5c0-0.7-0.4-1.3-1-1.5c-1.1-0.3-2,0.4-2,1.5v117.1
						C151.1,161.4,151.8,162.1,152.7,162.1"/>
					<path class="st8" d="M165.2,183c8,0,14.5-6.5,14.5-14.5V162c0-1.1-0.7-2.2-1.8-2.6c-1.9-0.6-3.6,0.8-3.6,2.5v6.3
						c0,4.8-3.6,9.1-8.4,9.5c-5.5,0.5-10.1-3.8-10.1-9.2l0-7.9c0-1.1-0.7-2.2-1.8-2.6c-1.9-0.6-3.6,0.8-3.6,2.5v7.9
						c0,8,6.5,14.5,14.5,14.5"/>
					<path class="st9" d="M152.8,14.6c0.2,0,0.3,0,0.5,0c0.2,0,0.3,0,0.5,0c52.6,0,88.2,36.6,88.2,84.7c-5.4-10.6-16.4-17.9-29-17.9
						c-12.9,0-24.1,7.6-29.4,18.5c-5.2-10.9-16.4-18.5-29.4-18.5c-0.3,0-0.6,0-0.9,0c-0.3,0-0.6,0-0.9,0c-12.9,0-24.1,7.6-29.4,18.5
						c-5.2-10.9-16.4-18.5-29.4-18.5c-12.7,0-23.7,7.3-29,17.9C64.6,51.2,100.2,14.6,152.8,14.6"/>
					<path class="st10" d="M152.8,14.6c0.2,0,0.3,0,0.5,0c0.2,0,0.3,0,0.5,0c52.6,0,88.2,36.6,88.2,84.7
						c-5.4-10.6-16.4-17.9-29-17.9c-12.9,0-24.1,7.6-29.4,18.5C183.6,26.6,152.8,14.6,152.8,14.6"/>
					<path class="st8" d="M93.7,81.5c-12.7,0-23.7,7.3-29,17.9c0-48.1,35.6-84.7,88.2-84.7c0,0-29.8,8-29.8,85.4
						C117.8,89,106.6,81.5,93.7,81.5"/>
				</g>
			</g>
		</g>
	</g>
</g>
<g id="Capa_3">
</g>
</svg>
